<?xml version="1.0" standalone="no"?>
<!DOCTYPE svg PUBLIC "-//W3C//DTD SVG 20010904//EN"
 "http://www.w3.org/TR/2001/REC-SVG-20010904/DTD/svg10.dtd">
<svg version="1.0" xmlns="http://www.w3.org/2000/svg"
 width="360.000000pt" height="439.000000pt" viewBox="0 0 360.000000 439.000000"
 preserveAspectRatio="xMidYMid meet">

<g transform="translate(0.000000,439.000000) scale(0.100000,-0.100000)"
fill="#000000" stroke="none">
<path d="M2661 4376 c-88 -32 -154 -123 -155 -216 -1 -51 8 -72 110 -275 154
-307 227 -500 300 -788 77 -307 108 -564 108 -897 0 -333 -31 -592 -108 -895
-74 -294 -150 -494 -299 -785 -102 -201 -109 -219 -110 -275 -2 -202 235 -308
387 -174 77 68 277 485 386 804 59 173 130 455 160 633 129 769 37 1574 -262
2287 -69 166 -226 472 -262 514 -61 69 -171 98 -255 67z"/>
<path d="M1801 3946 c-91 -33 -155 -123 -154 -221 0 -55 6 -72 80 -215 161
-312 256 -612 305 -960 17 -127 17 -573 0 -700 -49 -348 -144 -648 -305 -960
-74 -143 -80 -160 -80 -215 -1 -171 174 -283 328 -211 62 28 90 61 151 173
435 797 514 1768 214 2636 -81 233 -220 527 -287 608 -56 66 -169 95 -252 65z"/>
<path d="M965 3546 c-89 -39 -139 -117 -139 -216 0 -60 5 -75 66 -195 215
-424 275 -860 182 -1323 -34 -171 -83 -311 -172 -496 -71 -146 -77 -164 -76
-220 1 -133 96 -226 231 -226 108 1 171 48 240 183 139 271 220 519 264 809
25 168 31 484 11 638 -41 309 -141 633 -275 880 -49 91 -89 136 -142 161 -47
22 -145 25 -190 5z"/>
<path d="M157 3125 c-108 -40 -171 -150 -152 -263 3 -21 29 -77 56 -123 200
-340 200 -738 -1 -1078 -27 -47 -52 -104 -56 -127 -17 -115 47 -220 157 -259
81 -29 171 -9 233 51 40 38 102 141 153 251 178 385 178 861 0 1246 -51 110
-113 213 -153 251 -62 60 -157 80 -237 51z"/>
</g>
</svg>
